<svg width="229" height="60" viewBox="0 0 229 60" fill="none" xmlns="http://www.w3.org/2000/svg">
<path d="M21.56 30.12L22.08 28.96C24.4533 28.9867 26.3867 29.3467 27.88 30.04C29.4 30.7333 30.5067 31.6667 31.2 32.84C31.92 34.0133 32.28 35.3333 32.28 36.8C32.28 38.4 31.8933 39.8133 31.12 41.04C30.3733 42.2667 29.2667 43.24 27.8 43.96C26.3333 44.6533 24.5067 45 22.32 45H2.32L4.68 29.6L2.32 15H21.6C24.3733 15 26.5067 15.6533 28 16.96C29.52 18.24 30.28 20.0133 30.28 22.28C30.28 23.48 29.9867 24.6533 29.4 25.8C28.84 26.92 27.92 27.88 26.64 28.68C25.3867 29.4533 23.6933 29.9333 21.56 30.12ZM7.64 43.52L5.6 40.76H21.72C23.3733 40.76 24.6533 40.3867 25.56 39.64C26.4933 38.8667 26.96 37.7733 26.96 36.36C26.96 34.8667 26.4133 33.7067 25.32 32.88C24.2533 32.0533 22.6667 31.64 20.56 31.64H7.56V27.56H20.04C21.4533 27.56 22.6267 27.1733 23.56 26.4C24.4933 25.6 24.96 24.4667 24.96 23C24.96 21.9067 24.5733 21.0133 23.8 20.32C23.0267 19.6 21.9067 19.24 20.44 19.24H5.6L7.64 16.48L9.76 29.6L7.64 43.52ZM54.5072 30.12L55.0272 28.96C57.4005 28.9867 59.3339 29.3467 60.8272 30.04C62.3472 30.7333 63.4538 31.6667 64.1472 32.84C64.8672 34.0133 65.2272 35.3333 65.2272 36.8C65.2272 38.4 64.8405 39.8133 64.0672 41.04C63.3205 42.2667 62.2139 43.24 60.7472 43.96C59.2805 44.6533 57.4539 45 55.2672 45H35.2672L37.6272 29.6L35.2672 15H54.5472C57.3205 15 59.4539 15.6533 60.9472 16.96C62.4672 18.24 63.2272 20.0133 63.2272 22.28C63.2272 23.48 62.9339 24.6533 62.3472 25.8C61.7872 26.92 60.8672 27.88 59.5872 28.68C58.3339 29.4533 56.6405 29.9333 54.5072 30.12ZM40.5872 43.52L38.5472 40.76H54.6672C56.3205 40.76 57.6005 40.3867 58.5072 39.64C59.4405 38.8667 59.9072 37.7733 59.9072 36.36C59.9072 34.8667 59.3605 33.7067 58.2672 32.88C57.2005 32.0533 55.6139 31.64 53.5072 31.64H40.5072V27.56H52.9872C54.4005 27.56 55.5739 27.1733 56.5072 26.4C57.4405 25.6 57.9072 24.4667 57.9072 23C57.9072 21.9067 57.5205 21.0133 56.7472 20.32C55.9739 19.6 54.8539 19.24 53.3872 19.24H38.5472L40.5872 16.48L42.7072 29.6L40.5872 43.52ZM71.8091 38.12V33.76H92.7691V38.12H71.8091ZM85.7291 15L100.129 45H94.4891L81.4091 17H83.4491L70.3691 45H64.7291L79.1291 15H85.7291ZM107.311 17.44H112.591V45H107.311V17.44ZM94.9112 15H124.991V19.64H94.9112V15ZM134.498 35.24H139.858C140.018 36.44 140.511 37.4933 141.338 38.4C142.191 39.3067 143.311 40.0133 144.698 40.52C146.085 41 147.685 41.24 149.498 41.24C152.191 41.24 154.325 40.8267 155.898 40C157.471 39.1467 158.258 38 158.258 36.56C158.258 35.3867 157.805 34.5067 156.898 33.92C155.991 33.3333 154.351 32.8933 151.978 32.6L145.498 31.76C141.871 31.28 139.231 30.3867 137.578 29.08C135.951 27.7467 135.138 25.8667 135.138 23.44C135.138 21.6 135.685 20.0133 136.778 18.68C137.898 17.32 139.471 16.28 141.498 15.56C143.525 14.8133 145.898 14.44 148.618 14.44C151.311 14.44 153.698 14.84 155.778 15.64C157.858 16.44 159.511 17.56 160.738 19C161.991 20.4133 162.671 22.08 162.778 24H157.418C157.285 22.9333 156.831 22.0133 156.058 21.24C155.311 20.4667 154.298 19.8667 153.018 19.44C151.738 18.9867 150.231 18.76 148.498 18.76C146.045 18.76 144.085 19.16 142.618 19.96C141.151 20.76 140.418 21.8533 140.418 23.24C140.418 24.3067 140.845 25.1333 141.698 25.72C142.578 26.28 144.098 26.7067 146.258 27L152.818 27.92C155.511 28.2933 157.631 28.8 159.178 29.44C160.751 30.0533 161.871 30.8933 162.538 31.96C163.205 33 163.538 34.3467 163.538 36C163.538 37.92 162.951 39.6 161.778 41.04C160.605 42.48 158.951 43.6 156.818 44.4C154.711 45.1733 152.245 45.56 149.418 45.56C146.538 45.56 143.991 45.1333 141.778 44.28C139.591 43.4 137.858 42.1867 136.578 40.64C135.298 39.0933 134.605 37.2933 134.498 35.24ZM172.407 32.12C172.407 33.9067 172.767 35.4533 173.487 36.76C174.207 38.0667 175.234 39.08 176.567 39.8C177.927 40.4933 179.541 40.84 181.407 40.84C183.301 40.84 184.914 40.4933 186.247 39.8C187.581 39.08 188.607 38.0667 189.327 36.76C190.047 35.4533 190.407 33.9067 190.407 32.12V15H195.687V32.32C195.687 34.96 195.087 37.28 193.887 39.28C192.687 41.2533 191.021 42.8 188.887 43.92C186.754 45.0133 184.261 45.56 181.407 45.56C178.581 45.56 176.087 45.0133 173.927 43.92C171.794 42.8 170.127 41.2533 168.927 39.28C167.727 37.28 167.127 34.96 167.127 32.32V15H172.407V32.12ZM225.06 27.8V32.2H204.1V27.8H225.06ZM207.58 30L205.46 43.4L202.94 40.44H226.22V45H200.06L202.46 30L200.06 15H226.02V19.56H202.94L205.46 16.6L207.58 30Z" fill="#FFF1BF"/>
<path d="M112 45.6585V36.8728L115.295 33.5781H124.08V42.3639L120.786 45.6585H112Z" fill="white"/>
<path d="M112 36.8728V45.6585H120.786M112 36.8728H120.786M112 36.8728L115.295 33.5781H124.08M120.786 45.6585V36.8728M120.786 45.6585L124.08 42.3639V33.5781M120.786 36.8728L124.08 33.5781" stroke="#555555" stroke-width="0.5"/>
<path d="M123.775 44.6229L126.049 36.1365L130.084 33.8068L138.57 36.0807L136.296 44.5671L132.261 46.8968L123.775 44.6229Z" fill="white"/>
<path d="M126.049 36.1365L123.775 44.6229L132.261 46.8968M126.049 36.1365L134.535 38.4104M126.049 36.1365L130.084 33.8068L138.57 36.0807M132.261 46.8968L134.535 38.4104M132.261 46.8968L136.296 44.5671L138.57 36.0807M134.535 38.4104L138.57 36.0807" stroke="#555555" stroke-width="0.5"/>
</svg>
